<?xml version="1.0" standalone="no"?>
<!DOCTYPE svg PUBLIC "-//W3C//DTD SVG 20010904//EN"
 "http://www.w3.org/TR/2001/REC-SVG-20010904/DTD/svg10.dtd">
<svg version="1.0" xmlns="http://www.w3.org/2000/svg"
 width="100.000000pt" height="100.000000pt" viewBox="0 0 100.000000 100.000000"
 preserveAspectRatio="xMidYMid meet">

<g transform="translate(0.000000,100.000000) scale(0.100000,-0.100000)"
fill="#000000" stroke="none">
<path d="M616 509 c-15 -34 -25 -63 -23 -65 2 -2 16 24 30 58 15 34 25 63 23
65 -2 2 -15 -24 -30 -58z"/>
<path d="M863 515 c0 -33 2 -45 4 -27 2 18 2 45 0 60 -2 15 -4 0 -4 -33z"/>
<path d="M120 535 c0 -18 5 -25 20 -25 14 0 20 -7 20 -21 0 -18 -5 -20 -26
-16 -16 3 -22 1 -16 -5 17 -17 47 -4 50 20 3 17 -2 25 -17 29 -28 7 -27 30 2
36 19 4 18 4 -5 6 -24 1 -28 -3 -28 -24z"/>
<path d="M196 548 c-3 -7 -4 -29 -3 -48 2 -30 5 -35 27 -35 23 0 25 4 25 45 0
39 -3 45 -23 48 -12 2 -24 -3 -26 -10z m44 -13 c0 -8 -9 -15 -20 -15 -11 0
-20 7 -20 15 0 8 9 15 20 15 11 0 20 -7 20 -15z m0 -45 c0 -13 -7 -20 -20 -20
-13 0 -20 7 -20 20 0 13 7 20 20 20 13 0 20 -7 20 -20z"/>
<path d="M327 525 c-21 -45 -21 -45 3 -45 11 0 20 -6 20 -12 0 -10 2 -10 8 -1
9 14 3 93 -7 93 -4 0 -15 -16 -24 -35z m23 -10 c0 -15 -6 -25 -15 -25 -12 0
-13 4 -3 25 6 14 13 25 15 25 1 0 3 -11 3 -25z"/>
<path d="M407 525 c-21 -45 -21 -45 3 -45 11 0 20 -6 20 -12 0 -10 2 -10 8 -1
9 14 3 93 -7 93 -4 0 -15 -16 -24 -35z m23 -10 c0 -15 -6 -25 -15 -25 -12 0
-13 4 -3 25 6 14 13 25 15 25 1 0 3 -11 3 -25z"/>
<path d="M517 523 c-3 -5 -4 -26 -3 -48 1 -37 3 -40 31 -40 41 0 41 29 0 34
-28 4 -29 4 -6 10 13 4 28 16 32 29 7 20 5 22 -21 22 -16 0 -31 -3 -33 -7z
m43 -18 c0 -8 -9 -15 -20 -15 -11 0 -20 7 -20 15 0 8 9 15 20 15 11 0 20 -7
20 -15z m10 -55 c0 -5 -11 -10 -25 -10 -14 0 -25 5 -25 10 0 6 11 10 25 10 14
0 25 -4 25 -10z"/>
<path d="M661 491 c1 -35 2 -35 8 -7 9 43 31 45 32 4 l1 -33 7 29 c9 42 29 44
34 4 l5 -33 -2 35 c-1 34 -2 35 -43 36 -43 0 -43 0 -42 -35z"/>
<path d="M784 516 c-11 -29 0 -51 26 -51 21 0 25 5 25 30 0 24 -5 31 -23 33
-13 2 -24 -3 -28 -12z m46 -21 c0 -18 -5 -25 -20 -25 -15 0 -20 7 -20 25 0 18
5 25 20 25 15 0 20 -7 20 -25z"/>
</g>
</svg>
